<svg xmlns="http://www.w3.org/2000/svg" width="256" height="256" viewBox="0 0 256 256" role="img" aria-labelledby="title desc">
  <title id="title">SQL Table to Model Generator icon</title>
  <desc id="desc">Database cylinder with code brackets on a warm amber gradient background.</desc>
  <defs>
    <linearGradient id="bg" x1="24" y1="20" x2="224" y2="236" gradientUnits="userSpaceOnUse">
      <stop offset="0" stop-color="#1f2937"/>
      <stop offset="1" stop-color="#020617"/>
    </linearGradient>
    <linearGradient id="accent" x1="64" y1="52" x2="195" y2="190" gradientUnits="userSpaceOnUse">
      <stop offset="0" stop-color="#fbbf24"/>
      <stop offset="1" stop-color="#f97316"/>
    </linearGradient>
    <filter id="shadow" x="-20%" y="-20%" width="140%" height="140%">
      <feDropShadow dx="0" dy="10" stdDeviation="12" flood-color="#000000" flood-opacity="0.35"/>
    </filter>
  </defs>
  <rect x="16" y="16" width="224" height="224" rx="52" fill="url(#bg)"/>
  <circle cx="191" cy="58" r="34" fill="#f59e0b" opacity="0.12"/>
  <g filter="url(#shadow)">
    <path d="M82 78c0-15 24-27 54-27s54 12 54 27v74c0 15-24 27-54 27s-54-12-54-27V78Z" fill="#0f172a" stroke="#475569" stroke-width="6"/>
    <ellipse cx="136" cy="78" rx="54" ry="27" fill="url(#accent)"/>
    <path d="M82 78v74c0 15 24 27 54 27s54-12 54-27V78" fill="none" stroke="#f59e0b" stroke-width="6"/>
    <path d="M82 115c0 15 24 27 54 27s54-12 54-27" fill="none" stroke="#fcd34d" stroke-width="5" opacity="0.9"/>
  </g>
  <g fill="none" stroke="#e5e7eb" stroke-linecap="round" stroke-linejoin="round" stroke-width="10">
    <path d="M54 105 34 128l20 23"/>
    <path d="m202 105 20 23-20 23"/>
  </g>
  <path d="M121 98h30M121 118h30M121 138h30" stroke="#fff7ed" stroke-linecap="round" stroke-width="8"/>
</svg>
